# xmcd
#
# Track frame offsets: 
#        150
#        2857
#        7159
#        8362
#        12963
#        15017
#        19709
#        27834
#        33807
#        38777
#        44856
#        55110
#        58588
#        60222
#        62109
#        64044
#        67278
#        69257
#        71622
#        74258
#        76882
#        80723
#        82072
#        85129
#        88158
#        90002
#        91635
#        95321
#        99077
#        100586
#        104327
#        107060
#        108480
#
# Disc length: 1463 seconds
#
# Revision: 0
# Processed by: cddbd v1.5.2PL0 Copyright (c) Steve Scherf et al.
# Submitted via: ExactAudioCopy v0.90a11
#
DISCID=8a05b521
DTITLE=Dave Rubin (John Mayall) - Blues Breakers With Eric Clapton
DYEAR=1900
DGENRE=
TTITLE0=All Your Love (I Miss Loving) - Fig. 1-Intro:  Full Band
TTITLE1=All Your Love (I Miss Loving) - Fig. 2-Guitar Solo: Full Band
TTITLE2=All Your Love (I Miss Loving) - Fig. 2-Guitar Solo: Slow Demo 
TTITLE2=[Gtr. 1 meas. 22-24]
TTITLE3=Double Crossing Time - Fig. 3-Verse 1: Full Band
TTITLE4=Double Crossing Time - Fig. 3-Verse 1: Slow Demo [Gtr. 1 meas.
TTITLE4=7-8]
TTITLE5=Double Crossing Time - Fig. 4- Guitar Solo: Full Band
TTITLE6=Double Crossing Time - Fig. 4-Guitar Solo: Slow Demo [Gtr. 1 m
TTITLE6=eas. 1-12]
TTITLE7=Have You Heard - Fig. 5-Verse 1: Full Band
TTITLE8=Have You Heard - Fig. 5-Verse 1: Slow Demo [Gtr. 1 meas. 7-9, 
TTITLE8=11-12]
TTITLE9=Have You Heard - Fig. 6-Guitar Solo: Full Band
TTITLE10=Have You Heard - Fig. 6-Guitar Solo: Slow Demo [Gtr. 1 meas. 
TTITLE10=1-12]
TTITLE11=Hide Away - Fig. 7-Rehearsal A: Full Band
TTITLE12=Hide Away - Fig. 7-Rehearsal A: Slow Demo [Gtr. 1 meas. 8-12]
TTITLE13=Hide Away - Fig. 8-Rehearsal C: Full Band
TTITLE14=Hide Away - Fig. 9-Rehearsal F: Full Band
TTITLE15=Hide Away - Fig. 9-Rehearsal F: Slow Demo [Gtr. 1 meas. 1-12]
TTITLE16=It Ain't Right - Fig. 10-Intro: Full Band
TTITLE17=It Ain't Right - Fig. 11-Outro-Harmonica Solo: Full Band
TTITLE18=Key To Love - Fig. 12-Verse 1: Full Band
TTITLE19=Key To Love - Fig. 13-Guitar Solo: Full Band
TTITLE20=Key To Love - Fig. 13-Guitar Solo: Slow Demo [Gtr. 1 meas. 5-
TTITLE20=24]
TTITLE21=Little Girl - Fig. 14-Intro: Full Band
TTITLE22=Little Girl - Fig. 15-Verse 2: Full Band
TTITLE23=Little Girl - Fig. 16-Guitar Solo: Full Band
TTITLE24=Little Girl - Fig. 16-Guitar Solo: Slow Demo [Gtr. 1 meas. 10
TTITLE24=16]
TTITLE25=Ramblin' On My Mind - Fig.17-Intro: Full Band
TTITLE26=Ramblin' On My Mind - Fig. 18-Verse 2: Full Band
TTITLE27=Ramblin' On My Mind - Fig. 19 Guitar Solo: Full Band
TTITLE28=Steppin' Out - Fig. 20-Intro: Full Band
TTITLE29=Steppin' Out - Fig. 21-2nd Guitar Solo: Full Band
TTITLE30=Steppin' Out - Fig. 21-2nd Guitar Solo: Slow Demo [Gtr. 1 mea
TTITLE30=s. 13-24]
TTITLE31=What'd I Say - Fig. 22-Intro: Full Band
TTITLE32=What'd I Say - Fig. 23-Guitar Solo: Full Band
EXTD=A Step-byStep Breakdown of the Guitar Styles and Techniques of Er
EXTD=ic Clapton.\nThis CD accompanies the Hal Leonard "Guitar Signatur
EXTD=e Licks" instructional book.\n\nPage    Title                    
EXTD=              CD Track\n 13       All Your Love (I Miss
EXTD=Loving)          1-3\n 19       Double Crossing Time            
EXTD=4-7\n 25       Have You Heard                            
EXTD=8-11\n 32       Hide Away                                      12
EXTD=16\n 37       It Ain't Right                                    
EXTD=17-18\n 40       Key To Love                                   19
EXTD=21\n 45       Little Girl                                       
EXTD=22-25\n 51       Ramblin' On My Mind                      26-2
EXTD=8\n 56       Steppin' Out                                    29-3
EXTD=1\n 60       What'd I Say                                   32-33
EXTD=\n
EXTT0=
EXTT1=
EXTT2=
EXTT3=
EXTT4=
EXTT5=
EXTT6=
EXTT7=
EXTT8=
EXTT9=
EXTT10=
EXTT11=
EXTT12=
EXTT13=
EXTT14=
EXTT15=
EXTT16=
EXTT17=
EXTT18=
EXTT19=
EXTT20=
EXTT21=
EXTT22=
EXTT23=
EXTT24=
EXTT25=
EXTT26=
EXTT27=
EXTT28=
EXTT29=
EXTT30=
EXTT31=
EXTT32=
PLAYORDER=
